<svg width="200" height="200" viewBox="0 0 200 200" fill="none" xmlns="http://www.w3.org/2000/svg">
<rect width="200" height="200" fill="white"/>
<path d="M47 104.5V76H94.5V104.5H47ZM47 123.5H94.5V152H47V123.5ZM113.5 152V123.5H161V152H113.5ZM161 104.5H113.5V76H161V104.5ZM47 38C36.5203 38 28 46.5203 28 57V152C28 162.48 36.5203 171 47 171H161C171.48 171 180 162.48 180 152V57C180 46.5203 171.48 38 161 38H47Z" fill="#E9C62F"/>
<path d="M39 96.5V68H86.5V96.5H39ZM39 115.5H86.5V144H39V115.5ZM105.5 144V115.5H153V144H105.5ZM153 96.5H105.5V68H153V96.5ZM39 30C28.5203 30 20 38.5203 20 49V144C20 154.48 28.5203 163 39 163H153C163.48 163 172 154.48 172 144V49C172 38.5203 163.48 30 153 30H39Z" fill="#117766"/>
</svg>
